<?xml version="1.0" standalone="no"?>
<!DOCTYPE svg PUBLIC "-//W3C//DTD SVG 20010904//EN"
 "http://www.w3.org/TR/2001/REC-SVG-20010904/DTD/svg10.dtd">
<svg version="1.0" xmlns="http://www.w3.org/2000/svg"
 width="500.000000pt" height="500.000000pt" viewBox="0 0 500.000000 500.000000"
 preserveAspectRatio="xMidYMid meet">
<metadata>
Created by potrace 1.14, written by Peter Selinger 2001-2017
</metadata>
<g transform="translate(0.000000,500.000000) scale(0.100000,-0.100000)"
fill="#000000" stroke="none">
<path d="M0 2500 l0 -2500 2500 0 2500 0 0 2500 0 2500 -2500 0 -2500 0 0
-2500z m4300 738 c0 -1560 1 -1528 -59 -1708 -98 -291 -290 -521 -566 -675
-33 -19 -311 -142 -617 -273 l-557 -240 -566 244 c-312 134 -603 264 -648 291
-244 143 -434 375 -523 639 -61 183 -57 84 -61 1682 l-4 1462 1801 0 1800 0 0
-1422z"/>
<path d="M800 3166 c0 -1513 -2 -1459 55 -1626 31 -92 101 -223 158 -297 91
-118 248 -252 367 -313 25 -13 287 -128 583 -255 l538 -232 527 227 c569 245
607 262 696 323 75 50 205 174 263 250 88 113 160 273 199 437 16 70 18 177
21 1478 l4 1402 -1706 0 -1705 0 0 -1394z m1640 464 l0 -680 -675 0 -675 0 0
680 0 680 675 0 675 0 0 -680z m1508 3 l-3 -678 -677 -3 -678 -2 0 680 0 680
680 0 680 0 -2 -677z m-1508 -1513 l0 -680 -675 0 -675 0 0 680 0 680 675 0
675 0 0 -680z m1508 3 l-3 -678 -677 -3 -678 -2 0 680 0 680 680 0 680 0 -2
-677z"/>
<path d="M1180 3948 l0 -273 270 270 c149 148 270 271 270 272 0 2 -121 3
-270 3 l-270 0 0 -272z"/>
<path d="M2090 3965 c140 -140 256 -255 257 -255 2 0 3 115 3 255 l0 255 -257
0 -258 0 255 -255z"/>
<path d="M1610 3975 l-165 -165 335 0 335 0 -25 23 c-14 13 -90 87 -170 165
l-146 141 -164 -164z"/>
<path d="M2200 3387 l0 -337 75 0 75 0 0 263 0 263 -75 74 -75 74 0 -337z"/>
<path d="M1420 3385 l0 -325 75 0 75 0 0 230 0 230 198 -2 197 -3 3 -227 2
-228 70 0 70 0 0 325 0 325 -345 0 -345 0 0 -325z"/>
<path d="M1252 3617 l-72 -72 0 -248 0 -247 75 0 75 0 0 320 c0 176 -1 320 -3
320 -1 0 -35 -33 -75 -73z"/>
<path d="M1660 3240 l0 -180 105 0 105 0 0 180 0 180 -105 0 -105 0 0 -180z"/>
<path d="M2680 3635 l0 -585 217 0 216 0 -40 29 c-23 17 -50 49 -63 75 l-22
46 -89 0 -89 0 0 168 0 168 73 72 72 72 146 0 145 0 147 160 148 160 155 0
154 0 0 110 0 110 -585 0 -585 0 0 -585z"/>
<path d="M3432 3745 l-143 -155 -147 0 -148 0 -47 -48 -47 -48 0 -102 0 -102
44 0 c39 0 44 3 49 28 9 44 62 108 109 131 120 57 277 -10 303 -130 l7 -29
219 0 219 0 0 150 0 150 -212 2 -213 3 115 127 115 126 98 1 c97 1 97 1 97 26
l0 25 -138 0 -137 0 -143 -155z"/>
<path d="M3667 3722 c-15 -15 -27 -31 -27 -35 0 -4 47 -7 105 -7 l105 0 0 35
0 35 -78 0 c-73 0 -80 -2 -105 -28z"/>
<path d="M3160 3367 c-44 -15 -80 -68 -80 -118 0 -50 47 -106 96 -115 126 -23
199 152 91 220 -34 21 -69 25 -107 13z"/>
<path d="M3399 3173 c-12 -34 -53 -79 -94 -104 -30 -19 -27 -19 258 -19 l287
0 0 75 0 75 -220 0 -220 0 -11 -27z"/>
<path d="M1180 2125 l0 -585 585 0 585 0 0 585 0 585 -585 0 -585 0 0 -585z
m487 435 c26 -11 58 -31 71 -43 19 -18 26 -19 40 -9 119 86 209 101 320 52 60
-27 117 -81 150 -145 23 -43 27 -62 27 -140 0 -81 -3 -97 -33 -159 -60 -127
-199 -286 -376 -430 -97 -78 -110 -77 -223 17 -189 158 -331 329 -374 452 -44
123 -19 252 66 337 94 95 214 120 332 68z"/>
<path d="M1465 2473 c-112 -58 -151 -172 -104 -298 38 -101 192 -281 352 -409
l48 -39 34 25 c68 48 205 179 265 254 134 167 159 283 86 392 -39 58 -101 92
-169 92 -77 0 -131 -35 -189 -122 l-25 -38 -39 57 c-49 71 -105 103 -178 103
-28 -1 -64 -8 -81 -17z"/>
<path d="M2687 2703 c-4 -3 -7 -197 -7 -430 l0 -423 23 0 c27 0 139 54 157 75
10 12 19 8 55 -20 28 -21 65 -38 100 -45 104 -22 104 -26 -7 180 -55 102 -102
190 -105 197 -4 9 30 13 138 15 l143 3 105 147 106 148 163 0 162 0 0 -45 0
-45 65 0 65 0 0 125 0 125 -578 0 c-318 0 -582 -3 -585 -7z"/>
<path d="M3372 2357 l-73 -102 58 -5 c44 -5 85 -19 170 -63 l113 -57 105 0
105 0 0 115 0 115 -110 0 -110 0 0 50 0 50 -92 0 -93 -1 -73 -102z"/>
<path d="M3062 2147 c2 -8 37 -78 78 -155 l75 -142 313 0 312 0 0 95 0 95
-117 0 -116 0 -114 60 -113 60 -161 0 c-129 0 -160 -3 -157 -13z"/>
<path d="M2841 1802 c-13 -9 -54 -24 -90 -33 l-66 -17 -3 -106 -3 -106 586 0
585 0 0 110 0 111 -409 -1 c-422 -2 -455 1 -533 41 -44 22 -37 22 -67 1z"/>
</g>
</svg>
